<?xml version="1.0" encoding="utf-8" standalone="no"?>
<!DOCTYPE svg PUBLIC "-//W3C//DTD SVG 1.1//EN"
  "http://www.w3.org/Graphics/SVG/1.1/DTD/svg11.dtd">
<svg xmlns:xlink="http://www.w3.org/1999/xlink" width="639.978094pt" height="236.270414pt" viewBox="0 0 639.978094 236.270414" xmlns="http://www.w3.org/2000/svg" version="1.1">
 <metadata>
  <rdf:RDF xmlns:dc="http://purl.org/dc/elements/1.1/" xmlns:cc="http://creativecommons.org/ns#" xmlns:rdf="http://www.w3.org/1999/02/22-rdf-syntax-ns#">
   <cc:Work>
    <dc:type rdf:resource="http://purl.org/dc/dcmitype/StillImage"/>
    <dc:date>2026-10-04T00:08:32.394363</dc:date>
    <dc:format>image/svg+xml</dc:format>
    <dc:creator>
     <cc:Agent>
      <dc:title>Matplotlib v3.11.2, https://matplotlib.org/</dc:title>
     </cc:Agent>
    </dc:creator>
   </cc:Work>
  </rdf:RDF>
 </metadata>
 <defs>
  <style type="text/css">*{stroke-linejoin: round; stroke-linecap: butt}</style>
 </defs>
 <g id="figure_1">
  <g id="patch_1">
   <path d="M 0 236.270414 
L 639.978094 236.270414 
L 639.978094 0 
L 0 0 
z
" style="fill: #ffffff"/>
  </g>
  <g id="axes_1">
   <g id="patch_2">
    <path d="M 47.288281 198.069633 
L 277.319837 198.069633 
L 277.319837 19.766857 
L 47.288281 19.766857 
z
" style="fill: #ffffff"/>
   </g>
   <g id="patch_3">
    <path d="M 47.288281 170.638437 
L 95.211522 170.638437 
L 95.211522 156.922838 
L 47.288281 156.922838 
z
" clip-path="url(#pbc87d80cec)" style="fill: #eef0ed"/>
   </g>
   <g id="patch_4">
    <path d="M 243.773568 143.20724 
L 253.358216 143.20724 
L 253.358216 129.491642 
L 243.773568 129.491642 
z
" clip-path="url(#pbc87d80cec)" style="fill: #eef0ed"/>
   </g>
   <g id="matplotlib.axis_1">
    <g id="xtick_1">
     <g id="line2d_1">
      <defs>
       <path id="me1d140136e" d="M 0 0 
L 0 3.5 
" style="stroke: #56605b; stroke-width: 0.8"/>
      </defs>
      <g>
       <use xlink:href="#me1d140136e" x="47.288281" y="198.069633" style="fill: #56605b; stroke: #56605b; stroke-width: 0.8"/>
      </g>
     </g>
     <g id="text_1">
      <text style="font-size: 10px; font-family: 'DejaVu Sans'; text-anchor: middle; fill: #56605b" x="47.288281" y="212.667289" transform="rotate(-0 47.288281 212.667289)">00:00</text>
     </g>
    </g>
    <g id="xtick_2">
     <g id="line2d_2">
      <g>
       <use xlink:href="#me1d140136e" x="104.79617" y="198.069633" style="fill: #56605b; stroke: #56605b; stroke-width: 0.8"/>
      </g>
     </g>
     <g id="text_2">
      <text style="font-size: 10px; font-family: 'DejaVu Sans'; text-anchor: middle; fill: #56605b" x="104.79617" y="212.667289" transform="rotate(-0 104.79617 212.667289)">06:00</text>
     </g>
    </g>
    <g id="xtick_3">
     <g id="line2d_3">
      <g>
       <use xlink:href="#me1d140136e" x="162.304059" y="198.069633" style="fill: #56605b; stroke: #56605b; stroke-width: 0.8"/>
      </g>
     </g>
     <g id="text_3">
      <text style="font-size: 10px; font-family: 'DejaVu Sans'; text-anchor: middle; fill: #56605b" x="162.304059" y="212.667289" transform="rotate(-0 162.304059 212.667289)">12:00</text>
     </g>
    </g>
    <g id="xtick_4">
     <g id="line2d_4">
      <g>
       <use xlink:href="#me1d140136e" x="219.811948" y="198.069633" style="fill: #56605b; stroke: #56605b; stroke-width: 0.8"/>
      </g>
     </g>
     <g id="text_4">
      <text style="font-size: 10px; font-family: 'DejaVu Sans'; text-anchor: middle; fill: #56605b" x="219.811948" y="212.667289" transform="rotate(-0 219.811948 212.667289)">18:00</text>
     </g>
    </g>
    <g id="xtick_5">
     <g id="line2d_5">
      <g>
       <use xlink:href="#me1d140136e" x="277.319837" y="198.069633" style="fill: #56605b; stroke: #56605b; stroke-width: 0.8"/>
      </g>
     </g>
     <g id="text_5">
      <text style="font-size: 10px; font-family: 'DejaVu Sans'; text-anchor: middle; fill: #56605b" x="277.319837" y="212.667289" transform="rotate(-0 277.319837 212.667289)">24:00</text>
     </g>
    </g>
    <g id="text_6">
     <text style="font-size: 10px; font-family: 'DejaVu Sans'; text-anchor: middle; fill: #1d2421" x="162.304059" y="226.66807" transform="rotate(-0 162.304059 226.66807)">Time of day</text>
    </g>
   </g>
   <g id="matplotlib.axis_2">
    <g id="ytick_1">
     <g id="line2d_6">
      <path d="M 47.288281 198.069633 
L 277.319837 198.069633 
" clip-path="url(#pbc87d80cec)" style="fill: none; stroke: #e2e5e2; stroke-width: 0.8; stroke-linecap: square"/>
     </g>
     <g id="line2d_7">
      <defs>
       <path id="m4876e15010" d="M 0 0 
L -3.5 0 
" style="stroke: #56605b; stroke-width: 0.8"/>
      </defs>
      <g>
       <use xlink:href="#m4876e15010" x="47.288281" y="198.069633" style="fill: #56605b; stroke: #56605b; stroke-width: 0.8"/>
      </g>
     </g>
     <g id="text_7">
      <text style="font-size: 10px; font-family: 'DejaVu Sans'; text-anchor: end; fill: #56605b" x="40.288281" y="201.868461" transform="rotate(-0 40.288281 201.868461)">0</text>
     </g>
    </g>
    <g id="ytick_2">
     <g id="line2d_8">
      <path d="M 47.288281 170.638437 
L 277.319837 170.638437 
" clip-path="url(#pbc87d80cec)" style="fill: none; stroke: #e2e5e2; stroke-width: 0.8; stroke-linecap: square"/>
     </g>
     <g id="line2d_9">
      <g>
       <use xlink:href="#m4876e15010" x="47.288281" y="170.638437" style="fill: #56605b; stroke: #56605b; stroke-width: 0.8"/>
      </g>
     </g>
     <g id="text_8">
      <text style="font-size: 10px; font-family: 'DejaVu Sans'; text-anchor: end; fill: #56605b" x="40.288281" y="174.437265" transform="rotate(-0 40.288281 174.437265)">100</text>
     </g>
    </g>
    <g id="ytick_3">
     <g id="line2d_10">
      <path d="M 47.288281 143.20724 
L 277.319837 143.20724 
" clip-path="url(#pbc87d80cec)" style="fill: none; stroke: #e2e5e2; stroke-width: 0.8; stroke-linecap: square"/>
     </g>
     <g id="line2d_11">
      <g>
       <use xlink:href="#m4876e15010" x="47.288281" y="143.20724" style="fill: #56605b; stroke: #56605b; stroke-width: 0.8"/>
      </g>
     </g>
     <g id="text_9">
      <text style="font-size: 10px; font-family: 'DejaVu Sans'; text-anchor: end; fill: #56605b" x="40.288281" y="147.006068" transform="rotate(-0 40.288281 147.006068)">200</text>
     </g>
    </g>
    <g id="ytick_4">
     <g id="line2d_12">
      <path d="M 47.288281 115.776044 
L 277.319837 115.776044 
" clip-path="url(#pbc87d80cec)" style="fill: none; stroke: #e2e5e2; stroke-width: 0.8; stroke-linecap: square"/>
     </g>
     <g id="line2d_13">
      <g>
       <use xlink:href="#m4876e15010" x="47.288281" y="115.776044" style="fill: #56605b; stroke: #56605b; stroke-width: 0.8"/>
      </g>
     </g>
     <g id="text_10">
      <text style="font-size: 10px; font-family: 'DejaVu Sans'; text-anchor: end; fill: #56605b" x="40.288281" y="119.574872" transform="rotate(-0 40.288281 119.574872)">300</text>
     </g>
    </g>
    <g id="ytick_5">
     <g id="line2d_14">
      <path d="M 47.288281 88.344848 
L 277.319837 88.344848 
" clip-path="url(#pbc87d80cec)" style="fill: none; stroke: #e2e5e2; stroke-width: 0.8; stroke-linecap: square"/>
     </g>
     <g id="line2d_15">
      <g>
       <use xlink:href="#m4876e15010" x="47.288281" y="88.344848" style="fill: #56605b; stroke: #56605b; stroke-width: 0.8"/>
      </g>
     </g>
     <g id="text_11">
      <text style="font-size: 10px; font-family: 'DejaVu Sans'; text-anchor: end; fill: #56605b" x="40.288281" y="92.143676" transform="rotate(-0 40.288281 92.143676)">400</text>
     </g>
    </g>
    <g id="ytick_6">
     <g id="line2d_16">
      <path d="M 47.288281 60.913651 
L 277.319837 60.913651 
" clip-path="url(#pbc87d80cec)" style="fill: none; stroke: #e2e5e2; stroke-width: 0.8; stroke-linecap: square"/>
     </g>
     <g id="line2d_17">
      <g>
       <use xlink:href="#m4876e15010" x="47.288281" y="60.913651" style="fill: #56605b; stroke: #56605b; stroke-width: 0.8"/>
      </g>
     </g>
     <g id="text_12">
      <text style="font-size: 10px; font-family: 'DejaVu Sans'; text-anchor: end; fill: #56605b" x="40.288281" y="64.712479" transform="rotate(-0 40.288281 64.712479)">500</text>
     </g>
    </g>
    <g id="ytick_7">
     <g id="line2d_18">
      <path d="M 47.288281 33.482455 
L 277.319837 33.482455 
" clip-path="url(#pbc87d80cec)" style="fill: none; stroke: #e2e5e2; stroke-width: 0.8; stroke-linecap: square"/>
     </g>
     <g id="line2d_19">
      <g>
       <use xlink:href="#m4876e15010" x="47.288281" y="33.482455" style="fill: #56605b; stroke: #56605b; stroke-width: 0.8"/>
      </g>
     </g>
     <g id="text_13">
      <text style="font-size: 10px; font-family: 'DejaVu Sans'; text-anchor: end; fill: #56605b" x="40.288281" y="37.281283" transform="rotate(-0 40.288281 37.281283)">600</text>
     </g>
    </g>
    <g id="text_14">
     <text style="font-size: 10px; font-family: 'DejaVu Sans'; text-anchor: middle; fill: #1d2421" x="14.798438" y="108.918245" transform="rotate(-90 14.798438 108.918245)">Mean household load (W)</text>
    </g>
   </g>
   <g id="line2d_20">
    <path d="M 47.288281 177.405384 
L 49.684443 177.372501 
L 52.080605 177.383615 
L 54.476767 177.385272 
L 56.872929 177.40912 
L 59.269091 177.37994 
L 61.665253 177.379686 
L 64.061415 177.431479 
L 66.457578 177.38134 
L 68.85374 177.38879 
L 71.249902 177.411953 
L 73.646064 177.403495 
L 76.042226 177.378913 
L 78.438388 177.410225 
L 80.83455 177.404269 
L 83.230712 177.389205 
L 85.626874 177.408506 
L 88.023036 177.421546 
L 90.419198 177.392195 
L 92.81536 177.402911 
L 95.211522 175.733744 
L 97.607684 174.11281 
L 100.003846 174.11375 
L 102.400008 174.086144 
L 104.79617 174.105537 
L 107.192332 174.119763 
L 109.588494 174.119396 
L 111.984656 174.043126 
L 114.380818 173.043522 
L 116.77698 171.210529 
L 119.173142 171.230881 
L 121.569304 171.251129 
L 123.965466 171.216398 
L 126.361628 171.254385 
L 128.75779 171.196995 
L 131.153952 171.219324 
L 133.550115 175.090497 
L 135.946277 179.607662 
L 138.342439 179.60861 
L 140.738601 179.582081 
L 143.134763 179.606281 
L 145.530925 179.592121 
L 147.927087 179.610455 
L 150.323249 179.585958 
L 152.719411 179.627554 
L 155.115573 179.61455 
L 157.511735 179.585654 
L 159.907897 179.608622 
L 162.304059 175.686258 
L 164.700221 171.914028 
L 167.096383 171.931356 
L 169.492545 171.920708 
L 171.888707 171.884889 
L 174.284869 171.928025 
L 176.681031 171.922154 
L 179.077193 171.915267 
L 181.473355 175.832806 
L 183.869517 179.618136 
L 186.265679 179.59844 
L 188.661841 179.587978 
L 191.058003 179.594796 
L 193.454165 179.584076 
L 195.850327 179.584049 
L 198.246489 179.622298 
L 200.642652 179.604342 
L 203.038814 179.627238 
L 205.434976 179.633532 
L 207.831138 179.608797 
L 210.2273 179.604864 
L 212.623462 179.640002 
L 215.019624 179.608412 
L 217.415786 179.60738 
L 219.811948 172.605926 
L 222.20811 165.817807 
L 224.604272 159.974483 
L 227.000434 154.311952 
L 229.396596 150.449936 
L 231.792758 145.90692 
L 234.18892 145.90926 
L 236.585082 145.927147 
L 238.981244 144.45553 
L 241.377406 143.168623 
L 243.773568 143.190123 
L 246.16973 143.069754 
L 248.565892 147.082129 
L 250.962054 151.510812 
L 253.358216 151.550161 
L 255.754378 151.583718 
L 258.15054 151.532577 
L 260.546702 151.546251 
L 262.942864 157.431347 
L 265.339026 163.113637 
L 267.735189 167.989432 
L 270.131351 172.711167 
L 272.527513 172.750512 
L 274.923675 172.700063 
" clip-path="url(#pbc87d80cec)" style="fill: none; stroke: #eb6834; stroke-width: 2; stroke-linecap: square"/>
   </g>
   <g id="line2d_21">
    <path d="M 47.288281 165.304461 
L 49.684443 165.290011 
L 52.080605 165.303853 
L 54.476767 165.291223 
L 56.872929 165.342721 
L 59.269091 165.372895 
L 61.665253 165.320654 
L 64.061415 165.318618 
L 66.457578 165.300704 
L 68.85374 165.327046 
L 71.249902 165.31557 
L 73.646064 165.290478 
L 76.042226 165.292124 
L 78.438388 165.313279 
L 80.83455 165.254941 
L 83.230712 165.323347 
L 85.626874 165.306888 
L 88.023036 165.340169 
L 90.419198 165.024117 
L 92.81536 164.451781 
L 95.211522 161.885386 
L 97.607684 159.223732 
L 100.003846 158.584513 
L 102.400008 157.113175 
L 104.79617 156.341001 
L 107.192332 155.59048 
L 109.588494 154.75518 
L 111.984656 153.997678 
L 114.380818 156.396004 
L 116.77698 157.048291 
L 119.173142 156.837478 
L 121.569304 158.682732 
L 123.965466 160.236367 
L 126.361628 163.65557 
L 128.75779 165.206413 
L 131.153952 166.475763 
L 133.550115 167.18144 
L 135.946277 167.181922 
L 138.342439 166.665811 
L 140.738601 166.490512 
L 143.134763 165.220199 
L 145.530925 164.983298 
L 147.927087 164.044647 
L 150.323249 163.553264 
L 152.719411 162.697083 
L 155.115573 162.719663 
L 157.511735 163.607014 
L 159.907897 165.094863 
L 162.304059 159.064903 
L 164.700221 154.277962 
L 167.096383 154.945185 
L 169.492545 155.203264 
L 171.888707 155.378591 
L 174.284869 155.387939 
L 176.681031 155.585615 
L 179.077193 155.534701 
L 181.473355 162.514012 
L 183.869517 168.534887 
L 186.265679 168.480364 
L 188.661841 168.57245 
L 191.058003 168.614267 
L 193.454165 168.525463 
L 195.850327 168.592228 
L 198.246489 168.579533 
L 200.642652 168.51354 
L 203.038814 168.555867 
L 205.434976 168.548835 
L 207.831138 168.341092 
L 210.2273 168.077522 
L 212.623462 166.998783 
L 215.019624 160.212117 
L 217.415786 153.226309 
L 219.811948 146.871747 
L 222.20811 147.652262 
L 224.604272 131.71004 
L 227.000434 120.284268 
L 229.396596 115.431968 
L 231.792758 114.561325 
L 234.18892 115.704104 
L 236.585082 121.417794 
L 238.981244 125.73139 
L 241.377406 128.27328 
L 243.773568 131.613675 
L 246.16973 133.733556 
L 248.565892 134.650081 
L 250.962054 134.849758 
L 253.358216 134.946839 
L 255.754378 134.90483 
L 258.15054 134.864968 
L 260.546702 134.854252 
L 262.942864 134.935588 
L 265.339026 134.896806 
L 267.735189 147.377096 
L 270.131351 158.546552 
L 272.527513 158.479673 
L 274.923675 158.588685 
" clip-path="url(#pbc87d80cec)" style="fill: none; stroke: #2a78d6; stroke-width: 2; stroke-linecap: square"/>
   </g>
   <g id="line2d_22">
    <path d="M 47.288281 146.076624 
L 49.684443 146.862523 
L 52.080605 147.36503 
L 54.476767 147.938827 
L 56.872929 148.135842 
L 59.269091 148.138642 
L 61.665253 148.446543 
L 64.061415 148.382214 
L 66.457578 148.378651 
L 68.85374 148.515395 
L 71.249902 148.475959 
L 73.646064 148.516422 
L 76.042226 148.893545 
L 78.438388 149.246998 
L 80.83455 149.64339 
L 83.230712 150.21047 
L 85.626874 150.495554 
L 88.023036 150.822821 
L 90.419198 151.456275 
L 92.81536 151.214692 
L 95.211522 146.1934 
L 97.607684 140.332509 
L 100.003846 137.71214 
L 102.400008 134.029463 
L 104.79617 128.336365 
L 107.192332 114.318642 
L 109.588494 106.570577 
L 111.984656 101.408514 
L 114.380818 103.523977 
L 116.77698 111.220172 
L 119.173142 113.498177 
L 121.569304 124.434047 
L 123.965466 134.458153 
L 126.361628 139.077494 
L 128.75779 143.12436 
L 131.153952 148.32322 
L 133.550115 150.010023 
L 135.946277 149.451313 
L 138.342439 149.212116 
L 140.738601 147.448628 
L 143.134763 145.517959 
L 145.530925 143.615705 
L 147.927087 143.175331 
L 150.323249 142.86235 
L 152.719411 141.389822 
L 155.115573 142.518482 
L 157.511735 144.404103 
L 159.907897 147.810191 
L 162.304059 143.170813 
L 164.700221 136.275748 
L 167.096383 138.246348 
L 169.492545 139.247765 
L 171.888707 140.07024 
L 174.284869 140.379612 
L 176.681031 140.581349 
L 179.077193 140.665933 
L 181.473355 148.111227 
L 183.869517 156.592611 
L 186.265679 156.399269 
L 188.661841 155.979845 
L 191.058003 156.235359 
L 193.454165 156.261949 
L 195.850327 156.258209 
L 198.246489 156.387348 
L 200.642652 156.468032 
L 203.038814 156.451324 
L 205.434976 156.49583 
L 207.831138 156.873139 
L 210.2273 156.264446 
L 212.623462 155.090553 
L 215.019624 143.807947 
L 217.415786 132.212578 
L 219.811948 130.842263 
L 222.20811 122.833658 
L 224.604272 106.695451 
L 227.000434 86.650665 
L 229.396596 80.452503 
L 231.792758 79.192014 
L 234.18892 75.429151 
L 236.585082 83.651582 
L 238.981244 90.781962 
L 241.377406 94.113557 
L 243.773568 99.309504 
L 246.16973 102.083912 
L 248.565892 101.499261 
L 250.962054 99.280077 
L 253.358216 97.745161 
L 255.754378 96.904237 
L 258.15054 96.236987 
L 260.546702 95.768696 
L 262.942864 95.087586 
L 265.339026 95.167154 
L 267.735189 94.868967 
L 270.131351 95.747826 
L 272.527513 114.041219 
L 274.923675 134.172549 
" clip-path="url(#pbc87d80cec)" style="fill: none; stroke: #1baf7a; stroke-width: 2; stroke-linecap: square"/>
   </g>
   <g id="patch_5">
    <path d="M 47.288281 198.069633 
L 277.319837 198.069633 
" style="fill: none; stroke: #e2e5e2; stroke-width: 0.8; stroke-linejoin: miter; stroke-linecap: square"/>
   </g>
   <g id="text_15">
    <text style="font-size: 8px; font-family: 'DejaVu Sans'; text-anchor: start; fill: #1d2421" x="279.236766" y="174.7785" transform="rotate(-0 279.236766 174.7785)">Low-income</text>
   </g>
   <g id="text_16">
    <text style="font-size: 8px; font-family: 'DejaVu Sans'; text-anchor: start; fill: #1d2421" x="279.236766" y="160.667123" transform="rotate(-0 279.236766 160.667123)">Middle</text>
   </g>
   <g id="text_17">
    <text style="font-size: 8px; font-family: 'DejaVu Sans'; text-anchor: start; fill: #1d2421" x="279.236766" y="136.250987" transform="rotate(-0 279.236766 136.250987)">Affluent</text>
   </g>
   <g id="text_18">
    <text style="font-size: 7.5px; font-family: 'DejaVu Sans'; text-anchor: start; fill: #56605b" x="50.163676" y="187.645778" transform="rotate(-0 50.163676 187.645778)">eMARC target, night: 100–150 W (middle homes)</text>
   </g>
   <g id="patch_6">
    <path d="M 233.216235 186.840759 
Q 240.558944 165.968097 247.901652 145.095434 
" style="fill: none; stroke: #56605b; stroke-width: 0.8; stroke-linecap: round"/>
   </g>
   <g id="text_19">
    <text style="font-size: 7.5px; font-family: 'DejaVu Sans'; text-anchor: start; fill: #56605b" x="168.054848" y="196.423761" transform="rotate(-0 168.054848 196.423761)">eMARC target, 21:00: 200–250 W</text>
   </g>
   <g id="text_20">
    <text style="font-size: 9.5px; font-family: 'DejaVu Sans'; text-anchor: start; fill: #1d2421" x="47.288281" y="14.417773" transform="rotate(-0 47.288281 14.417773)">Non-summer (Oct–Nov)</text>
   </g>
  </g>
  <g id="axes_2">
   <g id="patch_7">
    <path d="M 352.887109 198.069633 
L 582.918665 198.069633 
L 582.918665 19.766857 
L 352.887109 19.766857 
z
" style="fill: #ffffff"/>
   </g>
   <g id="matplotlib.axis_3">
    <g id="xtick_6">
     <g id="line2d_23">
      <g>
       <use xlink:href="#me1d140136e" x="352.887109" y="198.069633" style="fill: #56605b; stroke: #56605b; stroke-width: 0.8"/>
      </g>
     </g>
     <g id="text_21">
      <text style="font-size: 10px; font-family: 'DejaVu Sans'; text-anchor: middle; fill: #56605b" x="352.887109" y="212.667289" transform="rotate(-0 352.887109 212.667289)">00:00</text>
     </g>
    </g>
    <g id="xtick_7">
     <g id="line2d_24">
      <g>
       <use xlink:href="#me1d140136e" x="410.394998" y="198.069633" style="fill: #56605b; stroke: #56605b; stroke-width: 0.8"/>
      </g>
     </g>
     <g id="text_22">
      <text style="font-size: 10px; font-family: 'DejaVu Sans'; text-anchor: middle; fill: #56605b" x="410.394998" y="212.667289" transform="rotate(-0 410.394998 212.667289)">06:00</text>
     </g>
    </g>
    <g id="xtick_8">
     <g id="line2d_25">
      <g>
       <use xlink:href="#me1d140136e" x="467.902887" y="198.069633" style="fill: #56605b; stroke: #56605b; stroke-width: 0.8"/>
      </g>
     </g>
     <g id="text_23">
      <text style="font-size: 10px; font-family: 'DejaVu Sans'; text-anchor: middle; fill: #56605b" x="467.902887" y="212.667289" transform="rotate(-0 467.902887 212.667289)">12:00</text>
     </g>
    </g>
    <g id="xtick_9">
     <g id="line2d_26">
      <g>
       <use xlink:href="#me1d140136e" x="525.410776" y="198.069633" style="fill: #56605b; stroke: #56605b; stroke-width: 0.8"/>
      </g>
     </g>
     <g id="text_24">
      <text style="font-size: 10px; font-family: 'DejaVu Sans'; text-anchor: middle; fill: #56605b" x="525.410776" y="212.667289" transform="rotate(-0 525.410776 212.667289)">18:00</text>
     </g>
    </g>
    <g id="xtick_10">
     <g id="line2d_27">
      <g>
       <use xlink:href="#me1d140136e" x="582.918665" y="198.069633" style="fill: #56605b; stroke: #56605b; stroke-width: 0.8"/>
      </g>
     </g>
     <g id="text_25">
      <text style="font-size: 10px; font-family: 'DejaVu Sans'; text-anchor: middle; fill: #56605b" x="582.918665" y="212.667289" transform="rotate(-0 582.918665 212.667289)">24:00</text>
     </g>
    </g>
    <g id="text_26">
     <text style="font-size: 10px; font-family: 'DejaVu Sans'; text-anchor: middle; fill: #1d2421" x="467.902887" y="226.66807" transform="rotate(-0 467.902887 226.66807)">Time of day</text>
    </g>
   </g>
   <g id="matplotlib.axis_4">
    <g id="ytick_8">
     <g id="line2d_28">
      <path d="M 352.887109 198.069633 
L 582.918665 198.069633 
" clip-path="url(#pe9d94153fc)" style="fill: none; stroke: #e2e5e2; stroke-width: 0.8; stroke-linecap: square"/>
     </g>
     <g id="line2d_29">
      <g>
       <use xlink:href="#m4876e15010" x="352.887109" y="198.069633" style="fill: #56605b; stroke: #56605b; stroke-width: 0.8"/>
      </g>
     </g>
    </g>
    <g id="ytick_9">
     <g id="line2d_30">
      <path d="M 352.887109 170.638437 
L 582.918665 170.638437 
" clip-path="url(#pe9d94153fc)" style="fill: none; stroke: #e2e5e2; stroke-width: 0.8; stroke-linecap: square"/>
     </g>
     <g id="line2d_31">
      <g>
       <use xlink:href="#m4876e15010" x="352.887109" y="170.638437" style="fill: #56605b; stroke: #56605b; stroke-width: 0.8"/>
      </g>
     </g>
    </g>
    <g id="ytick_10">
     <g id="line2d_32">
      <path d="M 352.887109 143.20724 
L 582.918665 143.20724 
" clip-path="url(#pe9d94153fc)" style="fill: none; stroke: #e2e5e2; stroke-width: 0.8; stroke-linecap: square"/>
     </g>
     <g id="line2d_33">
      <g>
       <use xlink:href="#m4876e15010" x="352.887109" y="143.20724" style="fill: #56605b; stroke: #56605b; stroke-width: 0.8"/>
      </g>
     </g>
    </g>
    <g id="ytick_11">
     <g id="line2d_34">
      <path d="M 352.887109 115.776044 
L 582.918665 115.776044 
" clip-path="url(#pe9d94153fc)" style="fill: none; stroke: #e2e5e2; stroke-width: 0.8; stroke-linecap: square"/>
     </g>
     <g id="line2d_35">
      <g>
       <use xlink:href="#m4876e15010" x="352.887109" y="115.776044" style="fill: #56605b; stroke: #56605b; stroke-width: 0.8"/>
      </g>
     </g>
    </g>
    <g id="ytick_12">
     <g id="line2d_36">
      <path d="M 352.887109 88.344848 
L 582.918665 88.344848 
" clip-path="url(#pe9d94153fc)" style="fill: none; stroke: #e2e5e2; stroke-width: 0.8; stroke-linecap: square"/>
     </g>
     <g id="line2d_37">
      <g>
       <use xlink:href="#m4876e15010" x="352.887109" y="88.344848" style="fill: #56605b; stroke: #56605b; stroke-width: 0.8"/>
      </g>
     </g>
    </g>
    <g id="ytick_13">
     <g id="line2d_38">
      <path d="M 352.887109 60.913651 
L 582.918665 60.913651 
" clip-path="url(#pe9d94153fc)" style="fill: none; stroke: #e2e5e2; stroke-width: 0.8; stroke-linecap: square"/>
     </g>
     <g id="line2d_39">
      <g>
       <use xlink:href="#m4876e15010" x="352.887109" y="60.913651" style="fill: #56605b; stroke: #56605b; stroke-width: 0.8"/>
      </g>
     </g>
    </g>
    <g id="ytick_14">
     <g id="line2d_40">
      <path d="M 352.887109 33.482455 
L 582.918665 33.482455 
" clip-path="url(#pe9d94153fc)" style="fill: none; stroke: #e2e5e2; stroke-width: 0.8; stroke-linecap: square"/>
     </g>
     <g id="line2d_41">
      <g>
       <use xlink:href="#m4876e15010" x="352.887109" y="33.482455" style="fill: #56605b; stroke: #56605b; stroke-width: 0.8"/>
      </g>
     </g>
    </g>
   </g>
   <g id="line2d_42">
    <path d="M 352.887109 154.805018 
L 355.283271 154.793882 
L 357.679433 154.712163 
L 360.075595 154.726745 
L 362.471758 154.656123 
L 364.86792 154.784727 
L 367.264082 154.797224 
L 369.660244 154.777738 
L 372.056406 154.677023 
L 374.452568 154.804702 
L 376.84873 154.767774 
L 379.244892 154.702015 
L 381.641054 154.806258 
L 384.037216 154.742776 
L 386.433378 154.663165 
L 388.82954 154.726973 
L 391.225702 154.760608 
L 393.621864 154.746341 
L 396.018026 154.754876 
L 398.414188 154.776042 
L 400.81035 158.34653 
L 403.206512 163.246991 
L 405.602674 163.222619 
L 407.998836 163.203766 
L 410.394998 163.16891 
L 412.79116 163.197585 
L 415.187322 163.187188 
L 417.583484 163.200575 
L 419.979646 162.046069 
L 422.375808 160.4478 
L 424.77197 160.440137 
L 427.168132 160.387479 
L 429.564295 160.378627 
L 431.960457 160.439475 
L 434.356619 160.436129 
L 436.752781 160.449929 
L 439.148943 164.452465 
L 441.545105 168.637374 
L 443.941267 168.709761 
L 446.337429 168.688776 
L 448.733591 168.663517 
L 451.129753 168.608706 
L 453.525915 168.672804 
L 455.922077 168.68619 
L 458.318239 168.676118 
L 460.714401 168.647354 
L 463.110563 168.709509 
L 465.506725 168.688895 
L 467.902887 159.695184 
L 470.299049 149.230148 
L 472.695211 149.389673 
L 475.091373 149.314913 
L 477.487535 149.355921 
L 479.883697 149.329501 
L 482.279859 149.377215 
L 484.676021 149.318216 
L 487.072183 152.982842 
L 489.468345 156.969318 
L 491.864507 156.935255 
L 494.260669 156.905333 
L 496.656831 156.909413 
L 499.052994 156.956851 
L 501.449156 156.923036 
L 503.845318 156.867659 
L 506.24148 156.894712 
L 508.637642 156.828911 
L 511.033804 156.880107 
L 513.429966 156.923794 
L 515.826128 162.297251 
L 518.22229 168.675026 
L 520.618452 168.616932 
L 523.014614 168.649515 
L 525.410776 161.518603 
L 527.806938 154.935748 
L 530.2031 149.495694 
L 532.599262 143.620288 
L 534.995424 139.55081 
L 537.391586 135.283633 
L 539.787748 135.283863 
L 542.18391 135.304043 
L 544.580072 133.887979 
L 546.976234 132.546136 
L 549.372396 132.538103 
L 551.768558 132.625099 
L 554.16472 131.276673 
L 556.560882 129.133362 
L 558.957044 129.135442 
L 561.353206 129.181956 
L 563.749368 129.119741 
L 566.145531 129.146106 
L 568.541693 134.503239 
L 570.937855 140.536708 
L 573.334017 145.523571 
L 575.730179 150.110131 
L 578.126341 150.12381 
L 580.522503 150.087212 
" clip-path="url(#pe9d94153fc)" style="fill: none; stroke: #eb6834; stroke-width: 2; stroke-linecap: square"/>
   </g>
   <g id="line2d_43">
    <path d="M 352.887109 130.599116 
L 355.283271 130.688271 
L 357.679433 130.641935 
L 360.075595 130.682437 
L 362.471758 130.618906 
L 364.86792 130.678135 
L 367.264082 130.602742 
L 369.660244 130.68461 
L 372.056406 130.720174 
L 374.452568 130.585653 
L 376.84873 130.692816 
L 379.244892 130.626621 
L 381.641054 130.684755 
L 384.037216 130.680382 
L 386.433378 130.537716 
L 388.82954 130.635602 
L 391.225702 130.651988 
L 393.621864 130.612526 
L 396.018026 130.671878 
L 398.414188 130.687406 
L 400.81035 138.244857 
L 403.206512 143.514753 
L 405.602674 143.474694 
L 407.998836 143.406431 
L 410.394998 143.18455 
L 412.79116 142.862567 
L 415.187322 142.215387 
L 417.583484 142.456979 
L 419.979646 146.681325 
L 422.375808 150.303805 
L 424.77197 150.531652 
L 427.168132 150.814965 
L 429.564295 151.371688 
L 431.960457 151.705197 
L 434.356619 151.395695 
L 436.752781 150.951605 
L 439.148943 150.261902 
L 441.545105 149.566952 
L 443.941267 149.237872 
L 446.337429 148.506063 
L 448.733591 148.92234 
L 451.129753 147.536858 
L 453.525915 147.371647 
L 455.922077 146.577524 
L 458.318239 147.107589 
L 460.714401 147.683084 
L 463.110563 148.47064 
L 465.506725 148.801941 
L 467.902887 132.803978 
L 470.299049 118.960597 
L 472.695211 119.718662 
L 475.091373 120.126221 
L 477.487535 120.181802 
L 479.883697 120.509565 
L 482.279859 120.564306 
L 484.676021 120.724905 
L 487.072183 127.297117 
L 489.468345 133.921158 
L 491.864507 133.986145 
L 494.260669 134.012068 
L 496.656831 134.039603 
L 499.052994 134.051071 
L 501.449156 134.100829 
L 503.845318 133.859791 
L 506.24148 134.016734 
L 508.637642 133.800979 
L 511.033804 133.901228 
L 513.429966 133.613431 
L 515.826128 143.976593 
L 518.22229 150.789859 
L 520.618452 143.398285 
L 523.014614 135.225039 
L 525.410776 131.144655 
L 527.806938 128.592681 
L 530.2031 116.074229 
L 532.599262 103.552161 
L 534.995424 99.612576 
L 537.391586 98.750979 
L 539.787748 97.175043 
L 542.18391 101.555152 
L 544.580072 106.532748 
L 546.976234 110.544024 
L 549.372396 114.97027 
L 551.768558 116.915044 
L 554.16472 107.174406 
L 556.560882 99.624037 
L 558.957044 99.679453 
L 561.353206 99.50584 
L 563.749368 99.524386 
L 566.145531 99.507683 
L 568.541693 99.503692 
L 570.937855 99.534924 
L 573.334017 111.410844 
L 575.730179 123.745852 
L 578.126341 123.674216 
L 580.522503 123.69339 
" clip-path="url(#pe9d94153fc)" style="fill: none; stroke: #2a78d6; stroke-width: 2; stroke-linecap: square"/>
   </g>
   <g id="line2d_44">
    <path d="M 352.887109 79.700829 
L 355.283271 82.02204 
L 357.679433 82.220645 
L 360.075595 82.723724 
L 362.471758 83.223287 
L 364.86792 83.233108 
L 367.264082 83.256568 
L 369.660244 83.181765 
L 372.056406 83.437996 
L 374.452568 83.349505 
L 376.84873 83.825541 
L 379.244892 84.626109 
L 381.641054 86.043383 
L 384.037216 90.810124 
L 386.433378 97.331956 
L 388.82954 106.246683 
L 391.225702 114.498259 
L 393.621864 122.760984 
L 396.018026 129.216121 
L 398.414188 133.611367 
L 400.81035 131.836257 
L 403.206512 128.246726 
L 405.602674 128.163637 
L 407.998836 128.069364 
L 410.394998 126.934592 
L 412.79116 126.341039 
L 415.187322 124.988219 
L 417.583484 124.453752 
L 419.979646 132.598814 
L 422.375808 139.896592 
L 424.77197 140.151958 
L 427.168132 140.404874 
L 429.564295 139.835638 
L 431.960457 139.847579 
L 434.356619 140.335238 
L 436.752781 140.219796 
L 439.148943 139.065579 
L 441.545105 137.657561 
L 443.941267 135.548065 
L 446.337429 132.465595 
L 448.733591 129.715085 
L 451.129753 125.833414 
L 453.525915 123.626903 
L 455.922077 122.779847 
L 458.318239 125.399187 
L 460.714401 128.653153 
L 463.110563 132.5759 
L 465.506725 134.964779 
L 467.902887 128.014583 
L 470.299049 120.171837 
L 472.695211 121.133965 
L 475.091373 121.274574 
L 477.487535 120.763715 
L 479.883697 118.604957 
L 482.279859 116.528397 
L 484.676021 113.229721 
L 487.072183 118.214791 
L 489.468345 122.517113 
L 491.864507 120.046271 
L 494.260669 118.462656 
L 496.656831 117.476701 
L 499.052994 117.391829 
L 501.449156 119.109449 
L 503.845318 120.877872 
L 506.24148 123.336766 
L 508.637642 126.962588 
L 511.033804 130.611766 
L 513.429966 134.144769 
L 515.826128 135.577637 
L 518.22229 137.580995 
L 520.618452 128.375323 
L 523.014614 117.608777 
L 525.410776 112.851897 
L 527.806938 110.39005 
L 530.2031 90.601682 
L 532.599262 72.051567 
L 534.995424 64.247221 
L 537.391586 64.165305 
L 539.787748 59.261178 
L 542.18391 69.414157 
L 544.580072 73.828897 
L 546.976234 78.567246 
L 549.372396 82.922784 
L 551.768558 83.29634 
L 554.16472 80.611828 
L 556.560882 74.052496 
L 558.957044 67.756014 
L 561.353206 56.787475 
L 563.749368 48.418738 
L 566.145531 40.123267 
L 568.541693 34.20935 
L 570.937855 29.831835 
L 573.334017 28.832417 
L 575.730179 29.814635 
L 578.126341 49.202354 
L 580.522503 68.655309 
" clip-path="url(#pe9d94153fc)" style="fill: none; stroke: #1baf7a; stroke-width: 2; stroke-linecap: square"/>
   </g>
   <g id="patch_8">
    <path d="M 352.887109 198.069633 
L 582.918665 198.069633 
" style="fill: none; stroke: #e2e5e2; stroke-width: 0.8; stroke-linejoin: miter; stroke-linecap: square"/>
   </g>
   <g id="text_27">
    <text style="font-size: 8px; font-family: 'DejaVu Sans'; text-anchor: start; fill: #1d2421" x="584.835594" y="152.165649" transform="rotate(-0 584.835594 152.165649)">Low-income</text>
   </g>
   <g id="text_28">
    <text style="font-size: 8px; font-family: 'DejaVu Sans'; text-anchor: start; fill: #1d2421" x="584.835594" y="125.771827" transform="rotate(-0 584.835594 125.771827)">Middle</text>
   </g>
   <g id="text_29">
    <text style="font-size: 8px; font-family: 'DejaVu Sans'; text-anchor: start; fill: #1d2421" x="584.835594" y="70.733747" transform="rotate(-0 584.835594 70.733747)">Affluent</text>
   </g>
   <g id="text_30">
    <text style="font-size: 9.5px; font-family: 'DejaVu Sans'; text-anchor: start; fill: #1d2421" x="352.887109" y="14.417773" transform="rotate(-0 352.887109 14.417773)">Summer (Apr–Jun)</text>
   </g>
   <g id="legend_1">
    <g id="line2d_45">
     <path d="M 360.087109 30.245607 
L 368.087109 30.245607 
L 376.087109 30.245607 
" style="fill: none; stroke: #eb6834; stroke-width: 2; stroke-linecap: square"/>
    </g>
    <g id="text_31">
     <text style="font-size: 8px; font-family: 'DejaVu Sans'; text-anchor: start" x="382.487109" y="33.045607" transform="rotate(-0 382.487109 33.045607)">Low-income</text>
    </g>
    <g id="line2d_46">
     <path d="M 360.087109 42.246232 
L 368.087109 42.246232 
L 376.087109 42.246232 
" style="fill: none; stroke: #2a78d6; stroke-width: 2; stroke-linecap: square"/>
    </g>
    <g id="text_32">
     <text style="font-size: 8px; font-family: 'DejaVu Sans'; text-anchor: start" x="382.487109" y="45.046232" transform="rotate(-0 382.487109 45.046232)">Middle</text>
    </g>
    <g id="line2d_47">
     <path d="M 360.087109 54.246857 
L 368.087109 54.246857 
L 376.087109 54.246857 
" style="fill: none; stroke: #1baf7a; stroke-width: 2; stroke-linecap: square"/>
    </g>
    <g id="text_33">
     <text style="font-size: 8px; font-family: 'DejaVu Sans'; text-anchor: start" x="382.487109" y="57.046857" transform="rotate(-0 382.487109 57.046857)">Affluent</text>
    </g>
   </g>
  </g>
 </g>
 <defs>
  <clipPath id="pbc87d80cec">
   <rect x="47.288281" y="19.766857" width="230.031555" height="178.302776"/>
  </clipPath>
  <clipPath id="pe9d94153fc">
   <rect x="352.887109" y="19.766857" width="230.031555" height="178.302776"/>
  </clipPath>
 </defs>
</svg>
